<!--?xml version="1.0" standalone="no"?-->
              <svg id="sw-js-blob-svg" viewBox="0 0 100 100" xmlns="http://www.w3.org/2000/svg" version="1.1">
                    <defs> 
                        <linearGradient id="sw-gradient" x1="0" x2="1" y1="1" y2="0">
                            <stop id="stop1" stop-color="rgba(242, 90, 153, 1)" offset="0%"></stop>
                            <stop id="stop2" stop-color="rgba(147.298, 147.298, 255, 1)" offset="100%"></stop>
                        </linearGradient>
                    </defs>
                <path fill="url(#sw-gradient)" d="M19.3,-25C25.7,-22,31.8,-17.2,28.6,-12.7C25.4,-8.2,12.7,-4.1,9.4,2.1C6,8.2,11.9,16.4,11.9,22.9C11.9,29.4,5.9,34.1,2.3,31C-1.4,27.9,-2.8,16.9,-10.7,12.9C-18.6,9,-32.9,12.2,-35.2,10.2C-37.4,8.3,-27.6,1.3,-23.9,-7.1C-20.3,-15.5,-22.8,-25.2,-19.9,-29.3C-16.9,-33.3,-8.5,-31.7,-1,-30.4C6.5,-29,13,-27.9,19.3,-25Z" width="100%" height="100%" transform="translate(50 50)" stroke-width="0" style="transition: all 0.3s ease 0s;" stroke="url(#sw-gradient)"></path>
              </svg>