<!--?xml version="1.0" standalone="no"?-->
              <svg id="sw-js-blob-svg" viewBox="0 0 100 100" xmlns="http://www.w3.org/2000/svg" version="1.1">
                    <defs> 
                        <linearGradient id="sw-gradient" x1="0" x2="1" y1="1" y2="0">
                            <stop id="stop1" stop-color="rgba(231, 157, 38, 1)" offset="0%"></stop>
                            <stop id="stop2" stop-color="rgba(231, 157, 38, 1)" offset="100%"></stop>
                        </linearGradient>
                    </defs>
                <path fill="url(#sw-gradient)" d="M8.8,-11.4C14.1,-12.2,22.8,-15.2,28,-13.7C33.2,-12.1,35,-6.1,34.1,-0.5C33.3,5.1,29.9,10.2,25.7,13.5C21.4,16.8,16.4,18.2,12,22.6C7.6,26.9,3.8,34.1,0.2,33.9C-3.5,33.6,-6.9,25.8,-10.5,21C-14.1,16.2,-17.7,14.3,-22.3,11.2C-26.9,8.2,-32.4,4.1,-31.6,0.5C-30.8,-3.2,-23.7,-6.4,-19.8,-10.6C-16,-14.9,-15.4,-20.2,-12.6,-20.9C-9.8,-21.5,-4.9,-17.4,-1.6,-14.7C1.8,-11.9,3.6,-10.6,8.8,-11.4Z" width="100%" height="100%" transform="translate(50 50)" stroke-width="0" style="transition: all 0.3s ease 0s;" stroke="url(#sw-gradient)"></path>
              </svg>